<mxfile host="app.diagrams.net" modified="2021-09-06T01:59:57.703Z" agent="5.0 (Windows NT 10.0; WOW64) AppleWebKit/537.36 (KHTML, like Gecko) Chrome/93.0.4577.63 Safari/537.36" etag="AXKLhdk9Q_x8k5sx-wuX" version="15.0.6" type="github">
  <diagram name="Page-1" id="58cdce13-f638-feb5-8d6f-7d28b1aa9fa0">
    <mxGraphModel dx="1422" dy="762" grid="1" gridSize="10" guides="1" tooltips="1" connect="1" arrows="1" fold="1" page="1" pageScale="1" pageWidth="1100" pageHeight="850" background="none" math="0" shadow="0">
      <root>
        <mxCell id="0" />
        <mxCell id="1" parent="0" />
        <mxCell id="bcREILTHHVcih9U9Gi_6-45" style="edgeStyle=orthogonalEdgeStyle;rounded=0;orthogonalLoop=1;jettySize=auto;html=1;" edge="1" parent="1" source="382b91b5511bd0f7-1" target="bcREILTHHVcih9U9Gi_6-13">
          <mxGeometry relative="1" as="geometry" />
        </mxCell>
        <mxCell id="382b91b5511bd0f7-1" value="" style="ellipse;html=1;shape=startState;fillColor=#000000;strokeColor=#ff0000;rounded=1;shadow=0;comic=0;labelBackgroundColor=none;fontFamily=Verdana;fontSize=12;fontColor=#000000;align=center;direction=south;" parent="1" vertex="1">
          <mxGeometry x="65" y="60" width="30" height="30" as="geometry" />
        </mxCell>
        <mxCell id="bcREILTHHVcih9U9Gi_6-17" value="Chegada de nova peça" style="edgeStyle=orthogonalEdgeStyle;rounded=0;orthogonalLoop=1;jettySize=auto;html=1;" edge="1" parent="1" source="bcREILTHHVcih9U9Gi_6-13" target="bcREILTHHVcih9U9Gi_6-16">
          <mxGeometry relative="1" as="geometry" />
        </mxCell>
        <mxCell id="bcREILTHHVcih9U9Gi_6-13" value="Aguardando peça&lt;br&gt;X1" style="whiteSpace=wrap;html=1;rounded=1;shadow=0;fontFamily=Verdana;strokeColor=#ff0000;fillColor=#ffffc0;arcSize=24;comic=0;" vertex="1" parent="1">
          <mxGeometry x="20" y="152" width="120" height="60" as="geometry" />
        </mxCell>
        <mxCell id="bcREILTHHVcih9U9Gi_6-19" value="" style="edgeStyle=orthogonalEdgeStyle;rounded=0;orthogonalLoop=1;jettySize=auto;html=1;" edge="1" parent="1" source="bcREILTHHVcih9U9Gi_6-16" target="bcREILTHHVcih9U9Gi_6-18">
          <mxGeometry relative="1" as="geometry" />
        </mxCell>
        <mxCell id="bcREILTHHVcih9U9Gi_6-20" value="Processo M1 pronto" style="edgeLabel;html=1;align=center;verticalAlign=middle;resizable=0;points=[];" vertex="1" connectable="0" parent="bcREILTHHVcih9U9Gi_6-19">
          <mxGeometry x="-0.3375" y="-1" relative="1" as="geometry">
            <mxPoint x="27" y="-1" as="offset" />
          </mxGeometry>
        </mxCell>
        <mxCell id="bcREILTHHVcih9U9Gi_6-42" style="edgeStyle=orthogonalEdgeStyle;rounded=0;orthogonalLoop=1;jettySize=auto;html=1;entryX=0.5;entryY=1;entryDx=0;entryDy=0;" edge="1" parent="1" source="bcREILTHHVcih9U9Gi_6-16" target="bcREILTHHVcih9U9Gi_6-13">
          <mxGeometry relative="1" as="geometry">
            <Array as="points">
              <mxPoint x="400" y="232" />
              <mxPoint x="80" y="232" />
            </Array>
          </mxGeometry>
        </mxCell>
        <mxCell id="bcREILTHHVcih9U9Gi_6-43" value="Processo M1 pronto" style="edgeLabel;html=1;align=center;verticalAlign=middle;resizable=0;points=[];" vertex="1" connectable="0" parent="bcREILTHHVcih9U9Gi_6-42">
          <mxGeometry x="-0.0741" y="3" relative="1" as="geometry">
            <mxPoint as="offset" />
          </mxGeometry>
        </mxCell>
        <mxCell id="bcREILTHHVcih9U9Gi_6-16" value="M1 produzindo&lt;br&gt;Y1" style="whiteSpace=wrap;html=1;rounded=1;shadow=0;fontFamily=Verdana;strokeColor=#ff0000;fillColor=#ffffc0;arcSize=24;comic=0;" vertex="1" parent="1">
          <mxGeometry x="340" y="152" width="120" height="60" as="geometry" />
        </mxCell>
        <mxCell id="bcREILTHHVcih9U9Gi_6-22" value="Retirada da peça" style="edgeStyle=orthogonalEdgeStyle;rounded=0;orthogonalLoop=1;jettySize=auto;html=1;" edge="1" parent="1" source="bcREILTHHVcih9U9Gi_6-18" target="bcREILTHHVcih9U9Gi_6-21">
          <mxGeometry relative="1" as="geometry">
            <Array as="points">
              <mxPoint x="810" y="172" />
              <mxPoint x="810" y="172" />
            </Array>
          </mxGeometry>
        </mxCell>
        <mxCell id="bcREILTHHVcih9U9Gi_6-18" value="Aguardando M1&amp;nbsp;&lt;br&gt;Z1" style="whiteSpace=wrap;html=1;rounded=1;shadow=0;fontFamily=Verdana;strokeColor=#ff0000;fillColor=#ffffc0;arcSize=24;comic=0;" vertex="1" parent="1">
          <mxGeometry x="620" y="152" width="120" height="60" as="geometry" />
        </mxCell>
        <mxCell id="bcREILTHHVcih9U9Gi_6-24" value="Robo em posição M2" style="edgeStyle=orthogonalEdgeStyle;rounded=0;orthogonalLoop=1;jettySize=auto;html=1;" edge="1" parent="1" source="bcREILTHHVcih9U9Gi_6-21" target="bcREILTHHVcih9U9Gi_6-23">
          <mxGeometry relative="1" as="geometry" />
        </mxCell>
        <mxCell id="bcREILTHHVcih9U9Gi_6-40" style="edgeStyle=orthogonalEdgeStyle;rounded=0;orthogonalLoop=1;jettySize=auto;html=1;entryX=0.5;entryY=0;entryDx=0;entryDy=0;" edge="1" parent="1" source="bcREILTHHVcih9U9Gi_6-21" target="bcREILTHHVcih9U9Gi_6-18">
          <mxGeometry relative="1" as="geometry">
            <Array as="points">
              <mxPoint x="970" y="132" />
              <mxPoint x="680" y="132" />
            </Array>
          </mxGeometry>
        </mxCell>
        <mxCell id="bcREILTHHVcih9U9Gi_6-41" value="Robô em posição M1" style="edgeLabel;html=1;align=center;verticalAlign=middle;resizable=0;points=[];" vertex="1" connectable="0" parent="bcREILTHHVcih9U9Gi_6-40">
          <mxGeometry x="-0.2121" y="-2" relative="1" as="geometry">
            <mxPoint as="offset" />
          </mxGeometry>
        </mxCell>
        <mxCell id="bcREILTHHVcih9U9Gi_6-21" value="Robô em movimento&lt;br&gt;R1" style="whiteSpace=wrap;html=1;rounded=1;shadow=0;fontFamily=Verdana;strokeColor=#ff0000;fillColor=#ffffc0;arcSize=24;comic=0;" vertex="1" parent="1">
          <mxGeometry x="890" y="152" width="120" height="60" as="geometry" />
        </mxCell>
        <mxCell id="bcREILTHHVcih9U9Gi_6-33" style="edgeStyle=orthogonalEdgeStyle;rounded=0;orthogonalLoop=1;jettySize=auto;html=1;exitX=0;exitY=0.5;exitDx=0;exitDy=0;" edge="1" parent="1" source="bcREILTHHVcih9U9Gi_6-23">
          <mxGeometry relative="1" as="geometry">
            <mxPoint x="840" y="403" as="targetPoint" />
          </mxGeometry>
        </mxCell>
        <mxCell id="bcREILTHHVcih9U9Gi_6-34" value="Depósito de peça" style="edgeLabel;html=1;align=center;verticalAlign=middle;resizable=0;points=[];" vertex="1" connectable="0" parent="bcREILTHHVcih9U9Gi_6-33">
          <mxGeometry x="0.2451" relative="1" as="geometry">
            <mxPoint as="offset" />
          </mxGeometry>
        </mxCell>
        <mxCell id="bcREILTHHVcih9U9Gi_6-23" value="Aguardando M2&lt;br&gt;X2" style="whiteSpace=wrap;html=1;rounded=1;shadow=0;fontFamily=Verdana;strokeColor=#ff0000;fillColor=#ffffc0;arcSize=24;comic=0;" vertex="1" parent="1">
          <mxGeometry x="920" y="282" width="120" height="60" as="geometry" />
        </mxCell>
        <mxCell id="bcREILTHHVcih9U9Gi_6-28" value="Processo M2 pronto" style="edgeStyle=orthogonalEdgeStyle;rounded=0;orthogonalLoop=1;jettySize=auto;html=1;exitX=0.75;exitY=0;exitDx=0;exitDy=0;entryX=0.75;entryY=1;entryDx=0;entryDy=0;" edge="1" parent="1" source="bcREILTHHVcih9U9Gi_6-25" target="bcREILTHHVcih9U9Gi_6-23">
          <mxGeometry x="-0.5" y="-10" relative="1" as="geometry">
            <mxPoint as="offset" />
          </mxGeometry>
        </mxCell>
        <mxCell id="bcREILTHHVcih9U9Gi_6-25" value="M2 produzindo&lt;br&gt;Y2" style="whiteSpace=wrap;html=1;rounded=1;shadow=0;fontFamily=Verdana;strokeColor=#ff0000;fillColor=#ffffc0;arcSize=24;comic=0;" vertex="1" parent="1">
          <mxGeometry x="920" y="502" width="120" height="60" as="geometry" />
        </mxCell>
        <mxCell id="bcREILTHHVcih9U9Gi_6-35" style="edgeStyle=orthogonalEdgeStyle;rounded=0;orthogonalLoop=1;jettySize=auto;html=1;entryX=0.2;entryY=-0.017;entryDx=0;entryDy=0;entryPerimeter=0;exitX=0.644;exitY=0.625;exitDx=0;exitDy=0;exitPerimeter=0;" edge="1" parent="1" source="bcREILTHHVcih9U9Gi_6-31" target="bcREILTHHVcih9U9Gi_6-25">
          <mxGeometry relative="1" as="geometry">
            <Array as="points">
              <mxPoint x="863" y="462" />
              <mxPoint x="944" y="462" />
            </Array>
          </mxGeometry>
        </mxCell>
        <mxCell id="bcREILTHHVcih9U9Gi_6-38" style="edgeStyle=orthogonalEdgeStyle;rounded=0;orthogonalLoop=1;jettySize=auto;html=1;" edge="1" parent="1">
          <mxGeometry relative="1" as="geometry">
            <mxPoint x="800" y="402" as="sourcePoint" />
            <mxPoint x="890" y="197" as="targetPoint" />
            <Array as="points">
              <mxPoint x="820" y="402" />
              <mxPoint x="820" y="452" />
              <mxPoint x="750" y="452" />
              <mxPoint x="750" y="197" />
            </Array>
          </mxGeometry>
        </mxCell>
        <mxCell id="bcREILTHHVcih9U9Gi_6-31" value="" style="line;strokeWidth=8;fillColor=none;align=left;verticalAlign=middle;spacingTop=-1;spacingLeft=3;spacingRight=3;rotatable=0;labelPosition=right;points=[];portConstraint=eastwest;" vertex="1" parent="1">
          <mxGeometry x="800" y="402" width="70" height="8" as="geometry" />
        </mxCell>
        <mxCell id="bcREILTHHVcih9U9Gi_6-46" value="a" style="text;html=1;align=center;verticalAlign=middle;resizable=0;points=[];autosize=1;strokeColor=none;fillColor=none;" vertex="1" parent="1">
          <mxGeometry x="230" y="160" width="20" height="20" as="geometry" />
        </mxCell>
        <mxCell id="bcREILTHHVcih9U9Gi_6-47" value="b" style="text;html=1;align=center;verticalAlign=middle;resizable=0;points=[];autosize=1;strokeColor=none;fillColor=none;" vertex="1" parent="1">
          <mxGeometry x="240" y="210" width="20" height="20" as="geometry" />
        </mxCell>
        <mxCell id="bcREILTHHVcih9U9Gi_6-48" value="b" style="text;html=1;align=center;verticalAlign=middle;resizable=0;points=[];autosize=1;strokeColor=none;fillColor=none;" vertex="1" parent="1">
          <mxGeometry x="520" y="160" width="20" height="20" as="geometry" />
        </mxCell>
        <mxCell id="bcREILTHHVcih9U9Gi_6-49" value="c" style="text;html=1;align=center;verticalAlign=middle;resizable=0;points=[];autosize=1;strokeColor=none;fillColor=none;" vertex="1" parent="1">
          <mxGeometry x="860" y="100" width="20" height="20" as="geometry" />
        </mxCell>
        <mxCell id="bcREILTHHVcih9U9Gi_6-50" value="d" style="text;html=1;align=center;verticalAlign=middle;resizable=0;points=[];autosize=1;strokeColor=none;fillColor=none;" vertex="1" parent="1">
          <mxGeometry x="810" y="150" width="20" height="20" as="geometry" />
        </mxCell>
        <mxCell id="bcREILTHHVcih9U9Gi_6-55" value="e" style="text;html=1;align=center;verticalAlign=middle;resizable=0;points=[];autosize=1;strokeColor=none;fillColor=none;" vertex="1" parent="1">
          <mxGeometry x="970" y="220" width="20" height="20" as="geometry" />
        </mxCell>
        <mxCell id="bcREILTHHVcih9U9Gi_6-56" value="f" style="text;html=1;align=center;verticalAlign=middle;resizable=0;points=[];autosize=1;strokeColor=none;fillColor=none;" vertex="1" parent="1">
          <mxGeometry x="1020" y="430" width="20" height="20" as="geometry" />
        </mxCell>
        <mxCell id="bcREILTHHVcih9U9Gi_6-57" value="g" style="text;html=1;align=center;verticalAlign=middle;resizable=0;points=[];autosize=1;strokeColor=none;fillColor=none;" vertex="1" parent="1">
          <mxGeometry x="880" y="440" width="20" height="20" as="geometry" />
        </mxCell>
        <mxCell id="bcREILTHHVcih9U9Gi_6-58" value="g" style="text;html=1;align=center;verticalAlign=middle;resizable=0;points=[];autosize=1;strokeColor=none;fillColor=none;" vertex="1" parent="1">
          <mxGeometry x="750" y="430" width="20" height="20" as="geometry" />
        </mxCell>
        <mxCell id="bcREILTHHVcih9U9Gi_6-59" value="Cassandras - Exercício 2.9" style="text;html=1;strokeColor=none;fillColor=none;align=center;verticalAlign=middle;whiteSpace=wrap;rounded=0;fontSize=22;fontStyle=1" vertex="1" parent="1">
          <mxGeometry x="400" y="20" width="320" height="20" as="geometry" />
        </mxCell>
      </root>
    </mxGraphModel>
  </diagram>
</mxfile>
